General
Complete name                            : Little_Einsteins_Our_Huge_Adventure_2005_NTSC_DVD5.iso
Format                                   : DVD-Video
Format profile                           : DVD-5 (Single Layer)
File size                                : 3.84 GiB
Duration                                 : 1 h 1 min
Overall bit rate mode                    : Variable
Overall bit rate                         : 8 984 kb/s
Disc label                               : LET0NNM1
Released date                            : 2005-08-23
Universal Product Code                   : 786936287127
Country of release                       : United States / Canada
Region code                              : Region 1
Video standard                           : NTSC

Video
ID                                       : 224 (0xE0)
Format                                   : MPEG Video
Format version                           : Version 2
Format profile                           : Main@Main
Format settings                          : BVOP
Format settings, BVOP                    : Yes
Format settings, Matrix                  : Default
Format settings, GOP                     : M=3, N=15
Duration                                 : 1 h 1 min
Bit rate mode                            : Variable
Bit rate                                 : 5 450 kb/s
Maximum bit rate                         : 8 000 kb/s
Width                                    : 720 pixels
Height                                   : 480 pixels
Display aspect ratio                     : 4:3
Frame rate                               : 29.970 (30000/1001) FPS
Standard                                 : NTSC
Color space                              : YUV
Chroma subsampling                       : 4:2:0
Bit depth                                : 8 bits
Scan type                                : Interlaced
Scan order                               : Bottom Field First
Compression mode                         : Lossy
Bits/(Pixel*Frame)                       : 0.526
Stream size                              : 2.33 GiB (61%)

Audio #1
ID                                       : 128 (0x80)
Format                                   : AC-3
Format/Info                              : Audio Coding 3
Commercial name                          : Dolby Digital
Muxing mode                              : DVD-Video
Duration                                 : 1 h 1 min
Bit rate mode                            : Constant
Bit rate                                 : 448 kb/s
Channel(s)                               : 6 channels
Channel layout                           : L R C LFE Ls Rs
Sampling rate                            : 48.0 kHz
Frame rate                               : 31.250 FPS (1536 SPF)
Bit depth                                : 16 bits
Compression mode                         : Lossy
Stream size                              : 196 MiB (5%)
Language                                 : English
Service kind                             : Complete Main

Audio #2
ID                                       : 129 (0x81)
Format                                   : AC-3
Format/Info                              : Audio Coding 3
Commercial name                          : Dolby Digital
Muxing mode                              : DVD-Video
Duration                                 : 1 h 1 min
Bit rate mode                            : Constant
Bit rate                                 : 448 kb/s
Channel(s)                               : 6 channels
Channel layout                           : L R C LFE Ls Rs
Sampling rate                            : 48.0 kHz
Frame rate                               : 31.250 FPS (1536 SPF)
Bit depth                                : 16 bits
Compression mode                         : Lossy
Stream size                              : 196 MiB (5%)
Language                                 : French (Canadian)
Service kind                             : Complete Main

Text #1
ID                                       : 0x20
Format                                   : RLE
Format/Info                              : Run-length image encoding
Muxing mode                              : DVD-Video
Language                                 : English (Subtitles / Closed Captions)

Menu
00:00:00.000                             : Chapter 1: Opening Credits / Caterpillar's Theme
00:08:42.000                             : Chapter 2: Caterpillar Mission Starts
00:18:15.000                             : Chapter 3: Meeting the Team and Rocket Setup
00:31:04.000                             : Chapter 4: The Cave Search (Oklahoma)
00:44:22.000                             : Chapter 5: Butterfly's Hidden Invitation
00:54:10.000                             : Chapter 6: Flight to Angangueo, Mexico / Ending Credits